<svg width="50" height="50" viewBox="0 0 50 50" fill="none" xmlns="http://www.w3.org/2000/svg">
<path d="M41.2222 11.5714H32.5556V9.48214C32.5556 8.55862 32.1751 7.67292 31.4979 7.0199C30.8207 6.36687 29.9022 6 28.9444 6H21.7222C20.7645 6 19.846 6.36687 19.1688 7.0199C18.4916 7.67292 18.1111 8.55862 18.1111 9.48214V11.5714H9.44444C9.06135 11.5714 8.69395 11.7182 8.42307 11.9794C8.15218 12.2406 8 12.5949 8 12.9643C8 13.3337 8.15218 13.688 8.42307 13.9492C8.69395 14.2104 9.06135 14.3571 9.44444 14.3571H10.9792L12.6944 40.9015C12.8226 43.2389 14.6806 45 17.0278 45H33.6389C35.9978 45 37.8187 43.2781 37.9722 40.9085L39.6875 14.3571H41.2222C41.6053 14.3571 41.9727 14.2104 42.2436 13.9492C42.5145 13.688 42.6667 13.3337 42.6667 12.9643C42.6667 12.5949 42.5145 12.2406 42.2436 11.9794C41.9727 11.7182 41.6053 11.5714 41.2222 11.5714ZM19.607 39.4286H19.5556C19.1812 39.4288 18.8214 39.2889 18.5519 39.0383C18.2825 38.7877 18.1244 38.4461 18.1111 38.0853L17.3889 18.5853C17.3752 18.2159 17.5143 17.8564 17.7756 17.5859C18.0368 17.3154 18.3988 17.156 18.7819 17.1429C19.165 17.1297 19.5378 17.2638 19.8183 17.5157C20.0989 17.7676 20.2641 18.1167 20.2778 18.4861L21 37.9861C21.0069 38.169 20.9763 38.3515 20.91 38.523C20.8437 38.6946 20.743 38.8518 20.6136 38.9858C20.4842 39.1197 20.3287 39.2278 20.156 39.3038C19.9833 39.3798 19.7967 39.4222 19.607 39.4286ZM26.7778 38.0357C26.7778 38.4051 26.6256 38.7594 26.3547 39.0206C26.0838 39.2818 25.7164 39.4286 25.3333 39.4286C24.9502 39.4286 24.5828 39.2818 24.312 39.0206C24.0411 38.7594 23.8889 38.4051 23.8889 38.0357V18.5357C23.8889 18.1663 24.0411 17.812 24.312 17.5508C24.5828 17.2896 24.9502 17.1429 25.3333 17.1429C25.7164 17.1429 26.0838 17.2896 26.3547 17.5508C26.6256 17.812 26.7778 18.1663 26.7778 18.5357V38.0357ZM29.6667 11.5714H21V9.48214C20.9989 9.3904 21.0168 9.29936 21.0528 9.21439C21.0887 9.12942 21.1418 9.05223 21.2091 8.98735C21.2764 8.92247 21.3564 8.87122 21.4446 8.83659C21.5327 8.80196 21.6271 8.78466 21.7222 8.78571H28.9444C29.0396 8.78466 29.134 8.80196 29.2221 8.83659C29.3102 8.87122 29.3903 8.92247 29.4576 8.98735C29.5248 9.05223 29.578 9.12942 29.6139 9.21439C29.6498 9.29936 29.6678 9.3904 29.6667 9.48214V11.5714ZM32.5556 38.0853C32.5422 38.4461 32.3842 38.7877 32.1147 39.0383C31.8453 39.2889 31.4854 39.4288 31.1111 39.4286H31.0587C30.8691 39.4221 30.6826 39.3796 30.51 39.3035C30.3374 39.2275 30.182 39.1194 30.0527 38.9855C29.9235 38.8515 29.8228 38.6943 29.7566 38.5228C29.6903 38.3514 29.6598 38.169 29.6667 37.9861L30.3889 18.4861C30.3956 18.3032 30.4397 18.1233 30.5185 17.9568C30.5974 17.7904 30.7094 17.6405 30.8483 17.5157C30.9872 17.391 31.1503 17.2939 31.3281 17.2299C31.5059 17.1659 31.6951 17.1363 31.8848 17.1429C32.0745 17.1494 32.261 17.1919 32.4336 17.2679C32.6063 17.3439 32.7617 17.452 32.8911 17.5859C33.0204 17.7198 33.1212 17.8771 33.1875 18.0485C33.2539 18.22 33.2845 18.4024 33.2778 18.5853L32.5556 38.0853Z" fill="#CE2028"/>
</svg>
