<svg width="50" height="50" viewBox="0 0 50 50" fill="none" xmlns="http://www.w3.org/2000/svg">
<path d="M45.3486 4.80466C45.1525 4.58969 44.9149 4.41667 44.6501 4.29602C44.3853 4.17537 44.0988 4.1096 43.8078 4.10266C43.5169 4.09573 43.2276 4.14778 42.9574 4.25567C42.6871 4.36356 42.4415 4.52506 42.2354 4.73044L40.4473 6.51266L43.4922 9.54977L45.25 7.80075C45.65 7.41067 45.8837 6.88099 45.9021 6.32255C45.9205 5.76411 45.7222 5.2202 45.3486 4.80466ZM24.6836 32.8125H17.1875V25.3164L18.1055 24.4004L31.5957 10.9375H4.6875V45.3125H39.0625V18.4043L25.5996 31.8945L24.6836 32.8125ZM39.0625 13.9804L42.2646 10.7715L39.2285 7.73532L36.0205 10.9375H39.0625V13.9804Z" fill="#60C2F0"/>
<path d="M20.3125 29.6875H23.3877L39.0625 13.9805V10.9375H36.0205L20.3125 26.6123V29.6875Z" fill="#60C2F0"/>
</svg>
